<svg xmlns="http://www.w3.org/2000/svg" viewBox="0 0 100 100" preserveAspectRatio="xMidYMid" width="201" height="201" style="shape-rendering: auto; display: block; background: transparent;" xmlns:xlink="http://www.w3.org/1999/xlink"><g><g transform="rotate(0 50 50)">
  <rect x="47" y="24" rx="3" ry="5.76" width="6" height="12" fill="#ffa666">
    <animate attributeName="opacity" values="1;0" keyTimes="0;1" dur="0.9803921568627451s" begin="-0.8986928104575164s" repeatCount="indefinite"></animate>
  </rect>
</g><g transform="rotate(30 50 50)">
  <rect x="47" y="24" rx="3" ry="5.76" width="6" height="12" fill="#ffa666">
    <animate attributeName="opacity" values="1;0" keyTimes="0;1" dur="0.9803921568627451s" begin="-0.8169934640522876s" repeatCount="indefinite"></animate>
  </rect>
</g><g transform="rotate(60 50 50)">
  <rect x="47" y="24" rx="3" ry="5.76" width="6" height="12" fill="#ffa666">
    <animate attributeName="opacity" values="1;0" keyTimes="0;1" dur="0.9803921568627451s" begin="-0.7352941176470588s" repeatCount="indefinite"></animate>
  </rect>
</g><g transform="rotate(90 50 50)">
  <rect x="47" y="24" rx="3" ry="5.76" width="6" height="12" fill="#ffa666">
    <animate attributeName="opacity" values="1;0" keyTimes="0;1" dur="0.9803921568627451s" begin="-0.6535947712418301s" repeatCount="indefinite"></animate>
  </rect>
</g><g transform="rotate(120 50 50)">
  <rect x="47" y="24" rx="3" ry="5.76" width="6" height="12" fill="#ffa666">
    <animate attributeName="opacity" values="1;0" keyTimes="0;1" dur="0.9803921568627451s" begin="-0.5718954248366013s" repeatCount="indefinite"></animate>
  </rect>
</g><g transform="rotate(150 50 50)">
  <rect x="47" y="24" rx="3" ry="5.76" width="6" height="12" fill="#ffa666">
    <animate attributeName="opacity" values="1;0" keyTimes="0;1" dur="0.9803921568627451s" begin="-0.49019607843137253s" repeatCount="indefinite"></animate>
  </rect>
</g><g transform="rotate(180 50 50)">
  <rect x="47" y="24" rx="3" ry="5.76" width="6" height="12" fill="#ffa666">
    <animate attributeName="opacity" values="1;0" keyTimes="0;1" dur="0.9803921568627451s" begin="-0.4084967320261438s" repeatCount="indefinite"></animate>
  </rect>
</g><g transform="rotate(210 50 50)">
  <rect x="47" y="24" rx="3" ry="5.76" width="6" height="12" fill="#ffa666">
    <animate attributeName="opacity" values="1;0" keyTimes="0;1" dur="0.9803921568627451s" begin="-0.32679738562091504s" repeatCount="indefinite"></animate>
  </rect>
</g><g transform="rotate(240 50 50)">
  <rect x="47" y="24" rx="3" ry="5.76" width="6" height="12" fill="#ffa666">
    <animate attributeName="opacity" values="1;0" keyTimes="0;1" dur="0.9803921568627451s" begin="-0.24509803921568626s" repeatCount="indefinite"></animate>
  </rect>
</g><g transform="rotate(270 50 50)">
  <rect x="47" y="24" rx="3" ry="5.76" width="6" height="12" fill="#ffa666">
    <animate attributeName="opacity" values="1;0" keyTimes="0;1" dur="0.9803921568627451s" begin="-0.16339869281045752s" repeatCount="indefinite"></animate>
  </rect>
</g><g transform="rotate(300 50 50)">
  <rect x="47" y="24" rx="3" ry="5.76" width="6" height="12" fill="#ffa666">
    <animate attributeName="opacity" values="1;0" keyTimes="0;1" dur="0.9803921568627451s" begin="-0.08169934640522876s" repeatCount="indefinite"></animate>
  </rect>
</g><g transform="rotate(330 50 50)">
  <rect x="47" y="24" rx="3" ry="5.76" width="6" height="12" fill="#ffa666">
    <animate attributeName="opacity" values="1;0" keyTimes="0;1" dur="0.9803921568627451s" begin="0s" repeatCount="indefinite"></animate>
  </rect>
</g><g></g></g><!-- [ldio] generated by https://loading.io --></svg>